<svg width="24" height="24" viewBox="0 0 24 24" fill="none" xmlns="http://www.w3.org/2000/svg">
<path d="M21.9995 16.9199V19.9199C22.0006 20.1984 21.9436 20.4741 21.832 20.7293C21.7204 20.9845 21.5568 21.2135 21.3516 21.4018C21.1464 21.5901 20.9041 21.7334 20.6403 21.8227C20.3764 21.9119 20.0969 21.945 19.8195 21.9199C16.7423 21.5856 13.7865 20.5341 11.1895 18.8499C8.77333 17.3146 6.72484 15.2661 5.18951 12.8499C3.49948 10.2411 2.44775 7.27094 2.11951 4.17994C2.09452 3.90341 2.12738 3.6247 2.21601 3.36157C2.30463 3.09843 2.44708 2.85663 2.63427 2.65157C2.82147 2.4465 3.04931 2.28265 3.3033 2.17047C3.55728 2.05828 3.83185 2.00021 4.10951 1.99994H7.10951C7.59481 1.99517 8.0653 2.16702 8.43327 2.48348C8.80124 2.79993 9.04158 3.23939 9.10951 3.71994C9.23613 4.68001 9.47096 5.62267 9.80951 6.52994C9.94405 6.88787 9.97317 7.27686 9.89341 7.65082C9.81366 8.02479 9.62837 8.36806 9.35951 8.63994L8.08951 9.90994C9.51306 12.4135 11.586 14.4864 14.0895 15.9099L15.3595 14.6399C15.6314 14.3711 15.9747 14.1858 16.3486 14.106C16.7226 14.0263 17.1116 14.0554 17.4695 14.1899C18.3768 14.5285 19.3194 14.7633 20.2795 14.8899C20.7653 14.9585 21.2089 15.2032 21.526 15.5774C21.8432 15.9517 22.0117 16.4295 21.9995 16.9199Z" stroke="black" stroke-width="1.5" stroke-linecap="round" stroke-linejoin="round"/>
</svg>
