<svg width="16" height="16" viewBox="0 0 16 16" fill="none" xmlns="http://www.w3.org/2000/svg">
<path d="M14.6667 11.2797V13.2797C14.6674 13.4654 14.6294 13.6492 14.555 13.8193C14.4806 13.9894 14.3715 14.1421 14.2347 14.2676C14.0979 14.3932 13.9364 14.4887 13.7605 14.5482C13.5846 14.6077 13.3983 14.6298 13.2133 14.6131C11.1619 14.3902 9.19134 13.6892 7.46001 12.5664C5.84923 11.5428 4.48356 10.1772 3.46001 8.56641C2.33333 6.82721 1.63217 4.84707 1.41334 2.78641C1.39668 2.60205 1.41859 2.41625 1.47767 2.24082C1.53676 2.0654 1.63172 1.9042 1.75652 1.76749C1.88131 1.63077 2.03321 1.52155 2.20253 1.44675C2.37186 1.37196 2.5549 1.33325 2.74001 1.33307H4.74001C5.06354 1.32989 5.3772 1.44446 5.62251 1.65543C5.86783 1.8664 6.02806 2.15937 6.07334 2.47974C6.15775 3.11978 6.31431 3.74822 6.54001 4.35307C6.6297 4.59169 6.64911 4.85102 6.59594 5.10033C6.54277 5.34964 6.41925 5.57848 6.24001 5.75974L5.39334 6.60641C6.34238 8.27544 7.72431 9.65737 9.39334 10.6064L10.24 9.75974C10.4213 9.5805 10.6501 9.45697 10.8994 9.4038C11.1487 9.35063 11.4081 9.37004 11.6467 9.45974C12.2515 9.68544 12.88 9.84199 13.52 9.92641C13.8439 9.97209 14.1396 10.1352 14.351 10.3847C14.5624 10.6343 14.6748 10.9528 14.6667 11.2797Z" stroke="white" stroke-width="1.5" stroke-linecap="round" stroke-linejoin="round"/>
</svg>
