<svg width="224" height="36" viewBox="0 0 224 36" fill="none" xmlns="http://www.w3.org/2000/svg">
<path d="M24.9679 34.9999C24.6479 34.9999 24.3759 34.8879 24.1519 34.6639C23.9279 34.4399 23.8159 34.1679 23.8159 33.8479V7.39994H13.3999V13.4479C13.3999 18.7279 13.0319 22.9039 12.2959 25.9759C11.5919 29.0159 10.3759 31.2559 8.64788 32.6959C6.91988 34.1039 4.51988 34.8559 1.44788 34.9519C1.12788 34.9839 0.839878 34.8879 0.583878 34.6639C0.359878 34.4399 0.247878 34.1519 0.247878 33.7999V30.1999C0.247878 29.8799 0.343878 29.6239 0.535878 29.4319C0.727878 29.2399 0.999878 29.1119 1.35188 29.0479C3.23988 28.7279 4.63188 27.2399 5.52788 24.5839C6.45588 21.8959 6.91988 17.8959 6.91988 12.5839V2.55194C6.91988 2.19994 7.03188 1.92794 7.25588 1.73594C7.47988 1.51194 7.75188 1.39994 8.07188 1.39994H29.2879C29.6399 1.39994 29.9279 1.51194 30.1519 1.73594C30.3759 1.95994 30.4879 2.24794 30.4879 2.59994V33.8479C30.4879 34.1999 30.3759 34.4879 30.1519 34.7119C29.9279 34.9039 29.6399 34.9999 29.2879 34.9999H24.9679ZM50.9059 35.4799C46.5539 35.4799 43.1619 34.3759 40.7299 32.1679C38.2979 29.9599 37.0179 26.6799 36.8899 22.3279C36.8579 21.3999 36.8419 20.0399 36.8419 18.2479C36.8419 16.4239 36.8579 15.0479 36.8899 14.1199C37.0179 9.86394 38.3299 6.59994 40.8259 4.32794C43.3219 2.05594 46.6819 0.919937 50.9059 0.919937C55.1299 0.919937 58.4899 2.05594 60.9859 4.32794C63.5139 6.59994 64.8419 9.86394 64.9699 14.1199C65.0339 15.9759 65.0659 17.3519 65.0659 18.2479C65.0659 19.1119 65.0339 20.4719 64.9699 22.3279C64.8099 26.6799 63.5139 29.9599 61.0819 32.1679C58.6499 34.3759 55.2579 35.4799 50.9059 35.4799ZM50.9059 29.9599C53.0499 29.9599 54.7619 29.3199 56.0419 28.0399C57.3219 26.7279 58.0099 24.7439 58.1059 22.0879C58.1699 20.1679 58.2019 18.8719 58.2019 18.1999C58.2019 17.4639 58.1699 16.1679 58.1059 14.3119C58.0099 11.6559 57.3219 9.68794 56.0419 8.40794C54.7619 7.09594 53.0499 6.43994 50.9059 6.43994C48.7939 6.43994 47.0979 7.09594 45.8179 8.40794C44.5379 9.68794 43.8499 11.6559 43.7539 14.3119C43.7219 15.2399 43.7059 16.5359 43.7059 18.1999C43.7059 19.8319 43.7219 21.1279 43.7539 22.0879C43.8499 24.7439 44.5219 26.7279 45.7699 28.0399C47.0499 29.3199 48.7619 29.9599 50.9059 29.9599ZM72.5209 34.9999C72.2009 34.9999 71.9289 34.8879 71.7049 34.6639C71.4809 34.4399 71.3689 34.1679 71.3689 33.8479V2.59994C71.3689 2.24794 71.4649 1.95994 71.6569 1.73594C71.8809 1.51194 72.1689 1.39994 72.5209 1.39994H92.1049C92.4569 1.39994 92.7449 1.51194 92.9689 1.73594C93.1929 1.95994 93.3049 2.24794 93.3049 2.59994V5.95994C93.3049 6.31194 93.1929 6.59994 92.9689 6.82394C92.7449 7.01594 92.4569 7.11194 92.1049 7.11194H78.0409V33.8479C78.0409 34.1679 77.9289 34.4399 77.7049 34.6639C77.5129 34.8879 77.2409 34.9999 76.8889 34.9999H72.5209ZM109.828 35.4799C105.476 35.4799 102.084 34.3759 99.6518 32.1679C97.2198 29.9599 95.9398 26.6799 95.8118 22.3279C95.7798 21.3999 95.7638 20.0399 95.7638 18.2479C95.7638 16.4239 95.7798 15.0479 95.8118 14.1199C95.9398 9.86394 97.2518 6.59994 99.7478 4.32794C102.244 2.05594 105.604 0.919937 109.828 0.919937C114.052 0.919937 117.412 2.05594 119.908 4.32794C122.436 6.59994 123.764 9.86394 123.892 14.1199C123.956 15.9759 123.988 17.3519 123.988 18.2479C123.988 19.1119 123.956 20.4719 123.892 22.3279C123.732 26.6799 122.436 29.9599 120.004 32.1679C117.572 34.3759 114.18 35.4799 109.828 35.4799ZM109.828 29.9599C111.972 29.9599 113.684 29.3199 114.964 28.0399C116.244 26.7279 116.932 24.7439 117.028 22.0879C117.092 20.1679 117.124 18.8719 117.124 18.1999C117.124 17.4639 117.092 16.1679 117.028 14.3119C116.932 11.6559 116.244 9.68794 114.964 8.40794C113.684 7.09594 111.972 6.43994 109.828 6.43994C107.716 6.43994 106.02 7.09594 104.74 8.40794C103.46 9.68794 102.772 11.6559 102.676 14.3119C102.644 15.2399 102.628 16.5359 102.628 18.1999C102.628 19.8319 102.644 21.1279 102.676 22.0879C102.772 24.7439 103.444 26.7279 104.692 28.0399C105.972 29.3199 107.684 29.9599 109.828 29.9599ZM138.835 34.9999C138.515 34.9999 138.243 34.8879 138.019 34.6639C137.795 34.4399 137.683 34.1679 137.683 33.8479V7.30394H128.803C128.483 7.30394 128.211 7.19194 127.987 6.96794C127.763 6.74394 127.651 6.47194 127.651 6.15194V2.59994C127.651 2.24794 127.747 1.95994 127.939 1.73594C128.163 1.51194 128.451 1.39994 128.803 1.39994H153.283C153.635 1.39994 153.923 1.51194 154.147 1.73594C154.371 1.95994 154.483 2.24794 154.483 2.59994V6.15194C154.483 6.47194 154.371 6.74394 154.147 6.96794C153.923 7.19194 153.635 7.30394 153.283 7.30394H144.451V33.8479C144.451 34.1679 144.339 34.4399 144.115 34.6639C143.891 34.8879 143.603 34.9999 143.251 34.9999H138.835ZM160.505 34.9999C160.153 34.9999 159.865 34.8879 159.641 34.6639C159.449 34.4399 159.353 34.1519 159.353 33.7999V2.59994C159.353 2.24794 159.465 1.95994 159.689 1.73594C159.913 1.51194 160.201 1.39994 160.553 1.39994H164.873C165.225 1.39994 165.497 1.51194 165.689 1.73594C165.913 1.95994 166.025 2.24794 166.025 2.59994V24.6319L181.817 2.16794C182.169 1.65594 182.633 1.39994 183.209 1.39994H187.193C187.545 1.39994 187.817 1.51194 188.009 1.73594C188.233 1.95994 188.345 2.24794 188.345 2.59994V33.8479C188.345 34.1679 188.233 34.4399 188.009 34.6639C187.817 34.8879 187.545 34.9999 187.193 34.9999H182.873C182.521 34.9999 182.233 34.9039 182.009 34.7119C181.785 34.4879 181.673 34.1999 181.673 33.8479V12.2479L165.929 34.2319C165.737 34.4879 165.545 34.6799 165.353 34.8079C165.161 34.9359 164.889 34.9999 164.537 34.9999H160.505ZM196.974 34.9999C196.654 34.9999 196.382 34.8879 196.158 34.6639C195.934 34.4399 195.822 34.1679 195.822 33.8479V2.59994C195.822 2.24794 195.918 1.95994 196.11 1.73594C196.334 1.51194 196.622 1.39994 196.974 1.39994H222.126C222.478 1.39994 222.766 1.51194 222.99 1.73594C223.214 1.95994 223.326 2.24794 223.326 2.59994V33.8479C223.326 34.1999 223.214 34.4879 222.99 34.7119C222.766 34.9039 222.478 34.9999 222.126 34.9999H217.806C217.486 34.9999 217.214 34.8879 216.99 34.6639C216.766 34.4399 216.654 34.1679 216.654 33.8479V7.39994H202.494V33.8479C202.494 34.1679 202.382 34.4399 202.158 34.6639C201.966 34.8879 201.694 34.9999 201.342 34.9999H196.974Z" fill="#FF9900"/>
</svg>
