<svg width="63" height="69" viewBox="0 0 63 69" fill="none" xmlns="http://www.w3.org/2000/svg">
<path d="M16.2695 10.9728C16.2695 8.01633 18.686 5.51343 21.7505 5.70243C33.7574 6.44223 44.2874 10.4814 52.5359 18.3573C54.8768 20.5902 54.4151 24.2379 51.9878 26.1009L51.329 26.6085L50.2571 25.4178L50.2382 25.3989C42.311 17.2584 30.8225 12.4794 18.6212 12.4794H16.2695V10.9728ZM16.2695 15.1767V44.8416C16.2695 48.168 20.0657 50.0742 22.736 48.0843L27.0776 44.8497V44.8551C27.0776 45.5712 27.3621 46.258 27.8684 46.7643C28.3748 47.2707 29.0615 47.5551 29.7776 47.5551C30.4937 47.5551 31.1805 47.2707 31.6868 46.7643C32.1932 46.258 32.4776 45.5712 32.4776 44.8551V39.4497C32.4804 39.1074 32.6131 38.7789 32.8489 38.5307C33.0847 38.2825 33.406 38.1331 33.7478 38.1129C34.0895 38.0926 34.4262 38.203 34.6897 38.4216C34.9531 38.6402 35.1237 38.9508 35.1668 39.2904V40.8024C35.1668 41.5185 35.4513 42.2053 35.9576 42.7116C36.464 43.218 37.1507 43.5024 37.8668 43.5024C38.5829 43.5024 39.2697 43.218 39.776 42.7116C40.2824 42.2053 40.5668 41.5185 40.5668 40.8024V34.7598C42.7943 33.1263 46.199 30.537 49.1798 28.2582L48.2861 27.2619C40.8908 19.6803 30.1205 15.1767 18.6185 15.1767H16.2695ZM27.7391 22.5801C27.739 22.8452 27.6866 23.1076 27.585 23.3524C27.4834 23.5972 27.3346 23.8196 27.147 24.0069C26.9595 24.1941 26.7369 24.3427 26.492 24.4439C26.2471 24.5452 25.9846 24.5972 25.7195 24.597C25.4545 24.5969 25.1921 24.5445 24.9473 24.4429C24.7025 24.3413 24.4801 24.1925 24.2928 24.0049C24.1055 23.8174 23.957 23.5948 23.8557 23.3499C23.7545 23.105 23.7025 22.8425 23.7026 22.5774C23.7026 22.0422 23.9153 21.5288 24.2938 21.1503C24.6723 20.7718 25.1856 20.5592 25.7209 20.5592C26.2562 20.5592 26.7695 20.7718 27.148 21.1503C27.5265 21.5288 27.7391 22.0422 27.7391 22.5774V22.5801ZM35.7716 27.9801C35.7716 28.5154 35.559 29.0288 35.1805 29.4073C34.802 29.7857 34.2887 29.9984 33.7534 29.9984C33.2181 29.9984 32.7048 29.7857 32.3263 29.4073C31.9478 29.0288 31.7351 28.5154 31.7351 27.9801C31.7351 27.4449 31.9478 26.9315 32.3263 26.553C32.7048 26.1745 33.2181 25.9619 33.7534 25.9619C34.2887 25.9619 34.802 26.1745 35.1805 26.553C35.559 26.9315 35.7716 27.4449 35.7716 27.9801ZM27.7607 34.7355C27.7607 35.2737 27.547 35.7898 27.1664 36.1703C26.7859 36.5508 26.2698 36.7646 25.7317 36.7646C25.1935 36.7646 24.6774 36.5508 24.2969 36.1703C23.9164 35.7898 23.7026 35.2737 23.7026 34.7355C23.7026 34.1974 23.9164 33.6813 24.2969 33.3008C24.6774 32.9203 25.1935 32.7065 25.7317 32.7065C26.2698 32.7065 26.7859 32.9203 27.1664 33.3008C27.547 33.6813 27.7607 34.1974 27.7607 34.7355Z" fill="#FF9900"/>
<path d="M1.428 66.5C1.33467 66.5 1.25533 66.4673 1.19 66.402C1.12467 66.3367 1.092 66.2573 1.092 66.164V57.05C1.092 56.9473 1.12 56.8633 1.176 56.798C1.24133 56.7327 1.32533 56.7 1.428 56.7H7.504C7.60667 56.7 7.69067 56.7327 7.756 56.798C7.82133 56.8633 7.854 56.9473 7.854 57.05V58.03C7.854 58.1327 7.82133 58.2167 7.756 58.282C7.69067 58.338 7.60667 58.366 7.504 58.366H3.01V61.026H7.224C7.32667 61.026 7.41067 61.0587 7.476 61.124C7.54133 61.1893 7.574 61.2733 7.574 61.376V62.356C7.574 62.4587 7.54133 62.5427 7.476 62.608C7.41067 62.664 7.32667 62.692 7.224 62.692H3.01V66.164C3.01 66.2667 2.97733 66.3507 2.912 66.416C2.84667 66.472 2.76267 66.5 2.66 66.5H1.428ZM11.0907 66.64C10.6147 66.64 10.1761 66.5467 9.77473 66.36C9.38273 66.164 9.07007 65.9027 8.83673 65.576C8.61273 65.2493 8.50073 64.89 8.50073 64.498C8.50073 63.8633 8.7574 63.35 9.27073 62.958C9.78407 62.566 10.4887 62.3 11.3847 62.16L13.3027 61.88V61.586C13.3027 61.1753 13.2001 60.8673 12.9947 60.662C12.7894 60.4567 12.4581 60.354 12.0007 60.354C11.6927 60.354 11.4407 60.4147 11.2447 60.536C11.0581 60.648 10.9087 60.76 10.7967 60.872C10.6847 60.9933 10.6101 61.0727 10.5727 61.11C10.5354 61.222 10.4654 61.278 10.3627 61.278H9.28473C9.20073 61.278 9.12607 61.25 9.06073 61.194C9.00473 61.138 8.97673 61.0633 8.97673 60.97C8.98607 60.7367 9.09807 60.4707 9.31273 60.172C9.53673 59.8733 9.8774 59.6167 10.3347 59.402C10.7921 59.1873 11.3521 59.08 12.0147 59.08C13.1161 59.08 13.9187 59.3273 14.4227 59.822C14.9267 60.3167 15.1787 60.9653 15.1787 61.768V66.164C15.1787 66.2573 15.1461 66.3367 15.0807 66.402C15.0247 66.4673 14.9454 66.5 14.8427 66.5H13.7087C13.6154 66.5 13.5361 66.4673 13.4707 66.402C13.4054 66.3367 13.3727 66.2573 13.3727 66.164V65.618C13.1674 65.9167 12.8734 66.164 12.4907 66.36C12.1174 66.5467 11.6507 66.64 11.0907 66.64ZM11.5667 65.31C12.0801 65.31 12.5001 65.142 12.8267 64.806C13.1534 64.47 13.3167 63.98 13.3167 63.336V63.042L11.9167 63.266C11.3754 63.35 10.9647 63.4853 10.6847 63.672C10.4141 63.8587 10.2787 64.0873 10.2787 64.358C10.2787 64.6567 10.4047 64.89 10.6567 65.058C10.9087 65.226 11.2121 65.31 11.5667 65.31ZM19.7328 66.64C19.0328 66.64 18.4448 66.5373 17.9688 66.332C17.4928 66.1173 17.1381 65.87 16.9048 65.59C16.6808 65.3007 16.5688 65.0533 16.5688 64.848C16.5688 64.7547 16.6014 64.68 16.6668 64.624C16.7321 64.568 16.8068 64.54 16.8908 64.54H17.9968C18.0808 64.54 18.1508 64.5727 18.2068 64.638C18.2441 64.666 18.3421 64.75 18.5008 64.89C18.6594 65.0393 18.8461 65.156 19.0608 65.24C19.2754 65.324 19.5134 65.366 19.7748 65.366C20.1481 65.366 20.4561 65.2913 20.6988 65.142C20.9414 64.9927 21.0628 64.7873 21.0628 64.526C21.0628 64.33 21.0068 64.1713 20.8948 64.05C20.7921 63.9287 20.6008 63.8213 20.3208 63.728C20.0408 63.6253 19.6254 63.518 19.0748 63.406C18.2814 63.238 17.6934 62.9813 17.3108 62.636C16.9374 62.2907 16.7508 61.8333 16.7508 61.264C16.7508 60.8907 16.8628 60.5407 17.0868 60.214C17.3108 59.878 17.6421 59.6073 18.0808 59.402C18.5288 59.1873 19.0608 59.08 19.6768 59.08C20.3021 59.08 20.8434 59.1827 21.3008 59.388C21.7581 59.584 22.1034 59.822 22.3368 60.102C22.5794 60.3727 22.7008 60.6153 22.7008 60.83C22.7008 60.914 22.6681 60.9887 22.6028 61.054C22.5468 61.11 22.4768 61.138 22.3928 61.138H21.3568C21.2821 61.138 21.2028 61.1053 21.1188 61.04C21.0534 60.9933 20.9508 60.9047 20.8108 60.774C20.6708 60.6433 20.5074 60.5407 20.3208 60.466C20.1341 60.3913 19.9148 60.354 19.6628 60.354C19.3174 60.354 19.0468 60.4287 18.8508 60.578C18.6641 60.7273 18.5708 60.9233 18.5708 61.166C18.5708 61.3433 18.6174 61.488 18.7108 61.6C18.8041 61.712 18.9861 61.8193 19.2568 61.922C19.5274 62.0247 19.9334 62.1273 20.4748 62.23C21.3708 62.4073 22.0101 62.6827 22.3928 63.056C22.7848 63.4293 22.9808 63.8867 22.9808 64.428C22.9808 65.0813 22.6961 65.6133 22.1268 66.024C21.5574 66.4347 20.7594 66.64 19.7328 66.64ZM27.6886 66.5C26.8393 66.5 26.1999 66.2807 25.7706 65.842C25.3506 65.394 25.1406 64.7407 25.1406 63.882V60.704H24.0346C23.9413 60.704 23.8619 60.6713 23.7966 60.606C23.7313 60.5313 23.6986 60.4473 23.6986 60.354V59.556C23.6986 59.4627 23.7313 59.3833 23.7966 59.318C23.8619 59.2527 23.9413 59.22 24.0346 59.22H25.1406V56.896C25.1406 56.7933 25.1733 56.714 25.2386 56.658C25.3039 56.5927 25.3833 56.56 25.4766 56.56H26.6106C26.7133 56.56 26.7926 56.5927 26.8486 56.658C26.9139 56.714 26.9466 56.7933 26.9466 56.896V59.22H28.6966C28.7993 59.22 28.8786 59.2527 28.9346 59.318C28.9999 59.374 29.0326 59.4533 29.0326 59.556V60.354C29.0326 60.4567 28.9999 60.5407 28.9346 60.606C28.8693 60.6713 28.7899 60.704 28.6966 60.704H26.9466V63.742C26.9466 64.1433 27.0166 64.4467 27.1566 64.652C27.2966 64.8573 27.5299 64.96 27.8566 64.96H28.8226C28.9159 64.96 28.9953 64.9927 29.0606 65.058C29.1259 65.1233 29.1586 65.2027 29.1586 65.296V66.164C29.1586 66.2573 29.1259 66.3367 29.0606 66.402C29.0046 66.4673 28.9253 66.5 28.8226 66.5H27.6886ZM30.9046 66.5C30.8112 66.5 30.7319 66.4673 30.6666 66.402C30.6012 66.3367 30.5686 66.2573 30.5686 66.164V57.05C30.5686 56.9473 30.5966 56.8633 30.6526 56.798C30.7179 56.7327 30.8019 56.7 30.9046 56.7H36.9806C37.0832 56.7 37.1672 56.7327 37.2326 56.798C37.2979 56.8633 37.3306 56.9473 37.3306 57.05V58.03C37.3306 58.1327 37.2979 58.2167 37.2326 58.282C37.1672 58.338 37.0832 58.366 36.9806 58.366H32.4866V61.026H36.7006C36.8032 61.026 36.8872 61.0587 36.9526 61.124C37.0179 61.1893 37.0506 61.2733 37.0506 61.376V62.356C37.0506 62.4587 37.0179 62.5427 36.9526 62.608C36.8872 62.664 36.8032 62.692 36.7006 62.692H32.4866V66.164C32.4866 66.2667 32.4539 66.3507 32.3886 66.416C32.3232 66.472 32.2392 66.5 32.1366 66.5H30.9046ZM41.892 66.64C40.8 66.64 39.9554 66.36 39.358 65.8C38.7607 65.2307 38.4387 64.456 38.392 63.476L38.378 62.86L38.392 62.244C38.4387 61.2733 38.7654 60.5033 39.372 59.934C39.9787 59.3647 40.8187 59.08 41.892 59.08C42.9654 59.08 43.8054 59.3647 44.412 59.934C45.0187 60.5033 45.3454 61.2733 45.392 62.244C45.4014 62.356 45.406 62.5613 45.406 62.86C45.406 63.1587 45.4014 63.364 45.392 63.476C45.3454 64.456 45.0234 65.2307 44.426 65.8C43.8287 66.36 42.984 66.64 41.892 66.64ZM41.892 65.254C42.3867 65.254 42.7694 65.1 43.04 64.792C43.3107 64.4747 43.46 64.0127 43.488 63.406C43.4974 63.3127 43.502 63.1307 43.502 62.86C43.502 62.5893 43.4974 62.4073 43.488 62.314C43.46 61.7073 43.3107 61.25 43.04 60.942C42.7694 60.6247 42.3867 60.466 41.892 60.466C41.3974 60.466 41.0147 60.6247 40.744 60.942C40.4734 61.25 40.324 61.7073 40.296 62.314L40.282 62.86L40.296 63.406C40.324 64.0127 40.4734 64.4747 40.744 64.792C41.0147 65.1 41.3974 65.254 41.892 65.254ZM50.1772 66.64C49.0852 66.64 48.2405 66.36 47.6432 65.8C47.0459 65.2307 46.7239 64.456 46.6772 63.476L46.6632 62.86L46.6772 62.244C46.7239 61.2733 47.0505 60.5033 47.6572 59.934C48.2639 59.3647 49.1039 59.08 50.1772 59.08C51.2505 59.08 52.0905 59.3647 52.6972 59.934C53.3039 60.5033 53.6305 61.2733 53.6772 62.244C53.6865 62.356 53.6912 62.5613 53.6912 62.86C53.6912 63.1587 53.6865 63.364 53.6772 63.476C53.6305 64.456 53.3085 65.2307 52.7112 65.8C52.1139 66.36 51.2692 66.64 50.1772 66.64ZM50.1772 65.254C50.6719 65.254 51.0545 65.1 51.3252 64.792C51.5959 64.4747 51.7452 64.0127 51.7732 63.406C51.7825 63.3127 51.7872 63.1307 51.7872 62.86C51.7872 62.5893 51.7825 62.4073 51.7732 62.314C51.7452 61.7073 51.5959 61.25 51.3252 60.942C51.0545 60.6247 50.6719 60.466 50.1772 60.466C49.6825 60.466 49.2999 60.6247 49.0292 60.942C48.7585 61.25 48.6092 61.7073 48.5812 62.314L48.5672 62.86L48.5812 63.406C48.6092 64.0127 48.7585 64.4747 49.0292 64.792C49.2999 65.1 49.6825 65.254 50.1772 65.254ZM57.9444 66.64C57.0017 66.64 56.2784 66.3367 55.7744 65.73C55.2704 65.1233 54.9997 64.316 54.9624 63.308L54.9484 62.846L54.9624 62.398C54.9904 61.418 55.2564 60.62 55.7604 60.004C56.2737 59.388 57.0017 59.08 57.9444 59.08C58.8497 59.08 59.5684 59.388 60.1004 60.004V56.896C60.1004 56.7933 60.133 56.714 60.1984 56.658C60.2637 56.5927 60.343 56.56 60.4364 56.56H61.6264C61.729 56.56 61.8084 56.5927 61.8644 56.658C61.9297 56.714 61.9624 56.7933 61.9624 56.896V66.164C61.9624 66.2573 61.9297 66.3367 61.8644 66.402C61.8084 66.4673 61.729 66.5 61.6264 66.5H60.5204C60.427 66.5 60.3477 66.4673 60.2824 66.402C60.217 66.3367 60.1844 66.2573 60.1844 66.164V65.646C59.6524 66.3087 58.9057 66.64 57.9444 66.64ZM58.4624 65.142C59.0037 65.142 59.405 64.9693 59.6664 64.624C59.9277 64.2787 60.0724 63.854 60.1004 63.35C60.1097 63.238 60.1144 63.056 60.1144 62.804C60.1144 62.5613 60.1097 62.384 60.1004 62.272C60.0817 61.8053 59.9324 61.4087 59.6524 61.082C59.3817 60.746 58.985 60.578 58.4624 60.578C57.4544 60.578 56.9177 61.1987 56.8524 62.44L56.8384 62.86L56.8524 63.28C56.9177 64.5213 57.4544 65.142 58.4624 65.142Z" fill="#FF9900"/>
</svg>
